{"title":"Only Connect S14E20 Birdwatchers v Westenders. revittony","magnet":"magnet:?xt=urn:btih:221cfcce047a35891409c96372c4fcda0bbae0fe&dn=Only+Connect+S14E20+Birdwatchers+v+Westenders.+revittony&tr=udp%3A%2F%2Ftracker.leechers-paradise.org%3A6969&tr=udp%3A%2F%2Fzer0day.ch%3A1337&tr=udp%3A%2F%2Fopen.demonii.com%3A1337&tr=udp%3A%2F%2Ftracker.coppersurfer.tk%3A6969&tr=udp%3A%2F%2Fexodus.desync.com%3A6969","uploader":"revittony1","categoryP":"video","categoryS":"tv_shows","size":"404365306","seeders":"0","leechers":"0","description":" <a href=\"https://www.imdb.com/title/tt1294009\" rel=\"nofollow\" target=\"_NEW\">https://www.imdb.com/title/tt1294009</a>\r\n\r\n\r\n\r\nFormat : MPEG-4 \r\nFormat profile : Base Media \r\nCodec ID : isom (isom/iso2/avc1/mp41) \r\nFile size : 342 MiB \r\nDuration : 28 min 54 s \r\nOverall bit rate : 1 652 kb/s \r\n\r\n\r\nVideo \r\nID : 1 \r\nFormat : AVC \r\nFormat/Info : Advanced Video Codec \r\nFormat profile : Main@L3.1 \r\nFormat settings : CABAC / 4 Ref Frames \r\nFormat settings, CABAC : Yes \r\nFormat settings, RefFrames : 4 frames \r\nFormat settings, GOP : M=8, N=96 \r\nCodec ID : avc1 \r\nCodec ID/Info : Advanced Video Coding \r\nDuration : 28 min 54 s \r\nBit rate : 1 554 kb/s \r\nWidth : 960 pixels \r\nHeight : 540 pixels \r\nDisplay aspect ratio : 16:9 \r\nFrame rate mode : Constant \r\nFrame rate : 25.000 FPS \r\nColor space : YUV \r\nChroma subsampling : 4:2:0 \r\nBit depth : 8 bits \r\nScan type : Progressive \r\nBits/(Pixel*Frame) : 0.120 \r\nStream size : 321 MiB (94%) \r\nColor range : Limited \r\nColor primaries : BT.709 \r\nTransfer characteristics : BT.709 \r\nMatrix coefficients : BT.709 \r\nCodec configuration box : avcC \r\n\r\nAudio \r\nID : 2 \r\nFormat : AAC LC SBR \r\nFormat/Info : Advanced Audio Codec Low Complexity with Spectral Band Replication \r\nCommercial name : HE-AAC \r\nFormat settings : Implicit \r\nCodec ID : mp4a-40-2 \r\nDuration : 28 min 54 s \r\nBit rate mode : Constant \r\nBit rate : 96.0 kb/s \r\nChannel(s) : 2 channels \r\nChannel layout : L R \r\nSampling rate : 48.0 kHz \r\nFrame rate : 23.438 FPS (2048 SPF) \r\nCompression mode : Lossy \r\nStream size : 19.6 MiB (6%) \r\nLanguage : English \r\nDefault : Yes \r\nAlternate group : 1","last_updated":"2019-03-05T10:35:35.584Z","parsed":{"xt":"urn:btih:221cfcce047a35891409c96372c4fcda0bbae0fe","dn":"Only Connect S14E20 Birdwatchers v Westenders. revittony","tr":["udp://exodus.desync.com:6969","udp://open.demonii.com:1337","udp://tracker.coppersurfer.tk:6969","udp://tracker.leechers-paradise.org:6969","udp://zer0day.ch:1337"],"infoHash":"221cfcce047a35891409c96372c4fcda0bbae0fe","infoHashBuffer":{"type":"Buffer","data":[34,28,252,206,4,122,53,137,20,9,201,99,114,196,252,218,11,186,224,254]},"name":"Only Connect S14E20 Birdwatchers v Westenders. revittony","announce":["udp://exodus.desync.com:6969","udp://open.demonii.com:1337","udp://tracker.coppersurfer.tk:6969","udp://tracker.leechers-paradise.org:6969","udp://zer0day.ch:1337"],"urlList":[]}}